# Blender 3.1.0
# www.blender.org
mtllib hex.mtl
o Circle
v 0.000000 0.000000 -1.000000
v -0.866025 0.000000 -0.500000
v -0.866025 0.000000 0.500000
v 0.000000 0.000000 1.000000
v 0.866025 0.000000 0.500000
v 0.866025 0.000000 -0.500000
v -0.732264 0.000000 -0.422773
v -0.000000 0.000000 -0.845546
v -0.732264 0.000000 0.422773
v 0.000000 0.000000 0.845546
v 0.732264 0.000000 0.422773
v 0.732264 0.000000 -0.422773
v 0.000000 0.051705 -1.000000
v -0.866025 0.051705 -0.500000
v -0.866025 0.051705 0.500000
v 0.000000 0.051705 1.000000
v 0.866025 0.051705 0.500000
v 0.866025 0.051705 -0.500000
v -0.732264 0.051705 -0.422773
v -0.000000 0.051705 -0.845546
v -0.732264 0.051705 0.422773
v 0.000000 0.051705 0.845546
v 0.732264 0.051705 0.422773
v 0.732264 0.051705 -0.422773
vn -0.0000 1.0000 -0.0000
vn -0.0000 -1.0000 -0.0000
vn 0.5000 -0.0000 0.8660
vn -1.0000 -0.0000 -0.0000
vn 0.5000 -0.0000 -0.8660
vn 1.0000 -0.0000 -0.0000
vn -0.5000 -0.0000 0.8660
vn -0.5000 -0.0000 -0.8660
vt 0.000000 0.000000
vt 0.000000 0.000000
vt 0.000000 0.000000
vt 0.000000 0.000000
vt 0.000000 0.000000
vt 0.000000 0.000000
vt 0.000000 0.000000
vt 0.000000 0.000000
vt 0.000000 0.000000
vt 0.000000 0.000000
vt 0.000000 0.000000
vt 0.000000 0.000000
vt 0.000000 0.000000
vt 0.000000 0.000000
vt 0.000000 0.000000
vt 0.000000 0.000000
vt 0.000000 0.000000
vt 0.000000 0.000000
vt 0.000000 0.000000
vt 0.000000 0.000000
vt 0.000000 0.000000
vt 0.000000 0.000000
vt 0.000000 0.000000
vt 0.000000 0.000000
s 0
f 19/19/1 20/20/1 13/13/1 14/14/1
f 7/7/2 2/2/2 1/1/2 8/8/2
f 9/9/2 3/3/2 2/2/2 7/7/2
f 10/10/2 4/4/2 3/3/2 9/9/2
f 11/11/2 5/5/2 4/4/2 10/10/2
f 12/12/2 6/6/2 5/5/2 11/11/2
f 8/8/2 1/1/2 6/6/2 12/12/2
f 21/21/1 19/19/1 14/14/1 15/15/1
f 22/22/1 21/21/1 15/15/1 16/16/1
f 23/23/1 22/22/1 16/16/1 17/17/1
f 24/24/1 23/23/1 17/17/1 18/18/1
f 20/20/1 24/24/1 18/18/1 13/13/1
f 7/7/3 8/8/3 20/20/3 19/19/3
f 2/2/4 3/3/4 15/15/4 14/14/4
f 12/12/4 11/11/4 23/23/4 24/24/4
f 6/6/5 1/1/5 13/13/5 18/18/5
f 9/9/6 7/7/6 19/19/6 21/21/6
f 3/3/7 4/4/7 16/16/7 15/15/7
f 8/8/7 12/12/7 24/24/7 20/20/7
f 10/10/5 9/9/5 21/21/5 22/22/5
f 4/4/3 5/5/3 17/17/3 16/16/3
f 1/1/8 2/2/8 14/14/8 13/13/8
f 11/11/8 10/10/8 22/22/8 23/23/8
f 5/5/6 6/6/6 18/18/6 17/17/6
